PathFileType	4	(X/Y/Z)	KinectSkeleton.trc																																																	
DataRate	CameraRate	NumFrames	NumMarkers	Units	OrigDataRate	OrigDataStartFrame	OrigNumFrames																																													
60	60	26	17	mm	60	186	300																																													
Frame#	Time	Neck			ShoulderMid			R.Shoulder			L.Shoulder			R.Elbow			L.Elbow			R.Wrist			L.Wrist			HipCenter			R.Hip			L.Hip			R.Knee			L.Knee			R.Ankle			L.Ankle			R.Foot			L.Foot		
		X1	Y1	Z1	X2	Y2	Z2	X3	Y3	Z3	X4	Y4	Z4	X5	Y5	Z5	X6	Y6	Z6	X7	Y7	Z7	X8	Y8	Z8	X9	Y9	Z9	X10	Y10	Z10	X11	Y11	Z11	X12	Y12	Z12	X13	Y13	Z13	X14	Y14	Z14	X15	Y15	Z15	X16	Y16	Z16	X17	Y17	Z17
																																																				
186	12.812	-1353.242	1420.873	715.459	-1353.242	1420.873	715.459	-1299.343	1298.015	832.121	-1420.204	1465.324	555.574	-1374.72	1031.702	902.505	-1443.483	1585.769	303.565	-1363.891	794.461	883.845	-1275.164	1745.643	341.62	-1367.755	909.265	530.204	-1351.892	881.637	607.273	-1385.347	939.903	444.736	-1272.857	491.291	530.477	-1036.015	916.136	239.135	-1442.925	138.263	545.172	-896.168	561.802	165.159	-1321.17	12.914	550.172	-774.168	596.666	23.723
187	12.874	-1348.138	1435.525	718.785	-1348.138	1435.525	718.785	-1295.895	1311.13	837.001	-1414.119	1474.454	554.432	-1375.514	1042.818	903.442	-1441.553	1594.312	300.302	-1364.879	804.071	881.957	-1270.487	1753.151	340.93	-1375.101	920.239	532.909	-1360.058	891.464	610.379	-1391.783	952.15	446.998	-1300.422	493.513	539.754	-1040.14	916.745	241.176	-1450.568	128.24	545.862	-904.025	557.855	167.381	-1316.405	14.268	549.981	-779.367	596.717	27.456
188	12.937	-1342.513	1444.319	718.332	-1342.513	1444.319	718.332	-1293.85	1319.529	836.584	-1407.864	1486.5	555.576	-1376.369	1053.562	904.848	-1431.5	1607.64	302.693	-1363.141	815.759	883.038	-1254.808	1759.364	341.929	-1379.277	931.804	531.649	-1364.455	902.533	608.679	-1395.713	964.265	446.226	-1324.573	501.67	549.141	-1042.827	917.448	247.574	-1454.649	130.09	548.033	-914.801	556.822	174.49	-1318.407	19.442	548.151	-780.356	596.962	45.243
189	13.012	-1340.4	1451.994	718.32	-1340.4	1451.994	718.32	-1292.396	1328.378	835.738	-1404.955	1493.585	556.146	-1374.029	1064.408	904.038	-1423.402	1611.518	303.599	-1366.885	828.026	883.084	-1246.834	1760.415	343.844	-1385.492	943.367	534.639	-1373.262	914.414	611.58	-1399.055	975.475	449.314	-1337.596	515.395	557.557	-1052.686	914.424	249.164	-1449.604	141.165	545.797	-909.184	563.203	174.197	-1326.272	18.138	548.841	-745.282	624.086	101.466
190	13.074	-1340.278	1454.846	717.224	-1340.278	1454.846	717.224	-1291.805	1331.083	834.668	-1406.075	1496.858	555.741	-1376.935	1068.461	904.883	-1412.828	1620.24	304.956	-1369.663	831.942	883.227	-1219.53	1745.156	350.7	-1391.398	943.938	538.938	-1376.809	915.984	615.914	-1407.577	974.938	453.574	-1344.128	517.049	557.01	-1061.178	906.911	255.03	-1451.298	141.025	546.293	-906.976	561.047	174.874	-1321.004	25.159	548.785	-754.691	637.003	91.435
191	13.146	-1339.556	1454.656	717.53	-1339.556	1454.656	717.53	-1291.231	1330.378	834.152	-1405.54	1497.546	556.679	-1378.994	1069.072	904.462	-1411.686	1611.868	302.037	-1374.929	833.144	879.34	-1227.147	1748.979	347.388	-1394.198	944.858	539.43	-1379.343	916.801	616.195	-1410.672	975.972	454.299	-1343.534	518.83	556.381	-1066.004	899.964	256.764	-1458.867	145.773	546.16	-916.173	554.922	167.801	-1330.531	28.084	548.139	-759.7	631.014	93.3
192	13.211	-1337.962	1456.165	719.065	-1337.962	1456.165	719.065	-1292.59	1330.133	835.161	-1404.708	1497.544	557.514	-1382.849	1069.729	905.104	-1405.171	1614.519	304.154	-1381.358	834.301	876.34	-1222.437	1755.86	342.748	-1397.3	948.648	537.227	-1383.52	919.683	613.813	-1412.582	980.769	452.297	-1344.235	521.409	559.778	-1067.474	889.933	262.333	-1460.494	148.75	553.399	-920.975	544.313	170.906	-1333.196	30.203	547.279	-768.495	625.013	93.27
193	13.275	-1338.321	1456.214	718.712	-1338.321	1456.214	718.712	-1293.93	1329.995	834.636	-1404.002	1500.79	557.884	-1383.663	1069.389	904.607	-1403.354	1619.624	305.364	-1387.702	833.993	875.668	-1214.905	1752.996	344.945	-1398.214	948.331	539.019	-1385.987	920.312	616.225	-1411.774	979.404	453.4	-1339.024	522.981	561.129	-1067.905	882.827	263.95	-1460.892	152.209	549.551	-925.573	537.135	166.284	-1333.442	33.66	547.655	-767.014	618.964	103.363
194	13.335	-1338.329	1456.214	718.712	-1338.329	1456.214	718.712	-1293.934	1329.996	834.635	-1404.012	1500.788	557.884	-1383.655	1069.386	904.604	-1403.372	1619.623	305.365	-1387.682	833.99	875.659	-1214.928	1753.002	344.944	-1398.214	948.331	539.019	-1385.987	920.311	616.225	-1411.774	979.403	453.4	-1339.004	522.983	561.125	-1067.906	882.828	263.948	-1460.829	152.198	549.55	-925.573	537.138	166.279	-1333.356	33.673	547.65	-767.017	618.969	103.355
195	13.41	-1341.126	1452.938	718.597	-1341.126	1452.938	718.597	-1297.556	1326.555	833.676	-1406.573	1501.292	560.032	-1389.256	1067.779	904.325	-1401.35	1613.323	305.414	-1389.234	832.818	877.636	-1218.098	1752.559	344.927	-1399.42	947.395	536.927	-1386.135	919.301	613.655	-1414.153	978.55	451.839	-1340.9	522.674	561.218	-1075.467	876.31	258.714	-1446.324	148.145	549.706	-924.634	534.579	164.642	-1322.312	26.763	548.409	-764.481	612.406	102.436
196	13.475	-1344.948	1451.231	717.976	-1344.948	1451.231	717.976	-1301.035	1325.629	833.324	-1407.715	1501.302	559.523	-1392.018	1066.947	904.279	-1403.169	1614.212	305.539	-1388.832	832.244	877.291	-1223.316	1757.56	344.796	-1397.772	946.889	532.869	-1384.447	918.312	609.335	-1412.548	978.579	448.07	-1340.187	521.52	560.032	-1075.438	874.511	253.88	-1456.976	150.689	549.703	-930.939	529.327	163.897	-1333.614	28.874	547.19	-772.196	609.001	100.905
197	13.546	-1346.063	1448.195	716.979	-1346.063	1448.195	716.979	-1303.945	1323.733	833.322	-1411.474	1500.182	560.798	-1391.174	1064.057	903.464	-1402.098	1616.477	308.991	-1387.494	829.611	877.796	-1215.087	1747.736	354.299	-1397.338	944.866	532.841	-1385.193	916.663	609.493	-1410.807	976.143	447.837	-1337.769	521.006	559.506	-1075.691	866.946	254.412	-1456.48	151.447	550.077	-927.982	523.843	164.436	-1335.075	28.1	547.059	-771.311	606.721	101.333
198	13.608	-1352.791	1447.996	715.163	-1352.791	1447.996	715.163	-1308.674	1323.381	831.186	-1418.881	1497.406	557.859	-1394.737	1062.588	899.956	-1398.012	1617.104	307.985	-1391.764	827.664	876.068	-1212.268	1750.096	354.842	-1397.525	942.696	532.926	-1386.907	914.953	610.076	-1409.3	973.461	447.369	-1339.857	518.814	559.747	-1075.366	863.599	251.307	-1456.979	148.278	549.891	-927.675	518.142	168.673	-1332.251	27.99	547.166	-773.414	601.816	100.246
199	13.671	-1362.323	1448.326	713.26	-1362.323	1448.326	713.26	-1317.928	1322.813	829.384	-1425.147	1498.234	554.6	-1399.004	1060.139	900.5	-1400.831	1615.617	303.021	-1389.357	825.176	872.195	-1216.829	1750.505	354.568	-1397.365	940.31	529.535	-1384.885	912.877	606.782	-1411.205	970.732	443.871	-1334.497	515.604	559.089	-1074.347	862.266	249.571	-1460.007	146.599	549.212	-932.438	513.053	167.239	-1333.198	27.732	547.419	-778.321	597.221	97.556
200	13.73	-1368.233	1438.956	712.557	-1368.233	1438.956	712.557	-1321.882	1318.881	830.621	-1428.053	1487.121	553.332	-1401.903	1057.607	900.361	-1403.846	1613.45	308.26	-1394.687	823.971	873.881	-1221.87	1745.379	366.94	-1394.482	934.097	529.007	-1382.408	906.926	605.804	-1407.872	964.229	443.842	-1327.288	513.63	553.775	-1073.237	861.918	248.074	-1449.519	146.223	549.488	-934.323	515.001	163.265	-1327.113	24.514	547.04	-774.718	586.955	95.772
201	13.792	-1371.986	1432.359	714.813	-1371.986	1432.359	714.813	-1324.884	1315.219	835.313	-1432.79	1482.788	557.08	-1404.759	1052.359	901.654	-1406.496	1612.471	313.3	-1394.356	818.403	874.541	-1221.967	1739.888	375.845	-1390.973	928.013	525.88	-1376.68	899.764	602.097	-1406.823	959.339	441.358	-1317.376	507.017	544.176	-1069.15	868.499	243.381	-1443.375	139.975	545.442	-930.896	518.431	167.117	-1319.374	19.335	544.392	-776.215	592.401	89.906
202	13.854	-1377.676	1429.844	715.211	-1377.676	1429.844	715.211	-1328.184	1308.941	833.231	-1438.049	1479.942	556.525	-1407.076	1045.271	902.488	-1409.148	1612.04	313.021	-1391.123	810.865	873.473	-1222.088	1731.901	385.766	-1389.929	923.732	523.787	-1373.386	895.282	599.846	-1408.274	955.283	439.44	-1306.388	502.872	536.662	-1067.812	881.672	235.765	-1447.389	139.626	541.604	-936.595	526.311	163.591	-1325.373	16.091	547.272	-774.558	590.396	90.85
203	13.936	-1384.691	1422.79	721.201	-1384.691	1422.79	721.201	-1333.652	1300.011	836.931	-1450.9	1477.34	566.963	-1411.442	1034.966	903.231	-1407.247	1613.98	327.9	-1384.996	801.448	872.917	-1225.496	1742.432	400.152	-1384.307	918.383	523.57	-1367.59	889.979	599.694	-1402.846	949.881	439.151	-1291.845	500.698	525.547	-1062.551	891.337	229.632	-1449.135	144.272	544.578	-938.539	530.843	169.172	-1330.616	17.043	542.474	-776.766	572.757	80.885
204	13.991	-1391.225	1412.325	727.843	-1391.225	1412.325	727.843	-1337.527	1287.093	839.805	-1460.268	1468.503	575.192	-1403.196	1017.926	902.323	-1413.276	1606.902	337.828	-1373.734	784.878	871.448	-1235.041	1739.077	411.992	-1379.682	913.871	516.374	-1359.55	884.165	591.15	-1402.008	946.813	433.451	-1274.171	497.139	515.987	-1060.239	913.77	220.893	-1438.008	144.816	549.503	-937.157	551.246	172.164	-1335.159	4.679	545.902	-820.009	564.042	24.434
205	14.07	-1391.507	1405.612	730.651	-1391.507	1405.612	730.651	-1336.89	1280.059	841.964	-1460.611	1462.253	577.069	-1400.564	1009.121	901.894	-1419.167	1606.364	341.302	-1370.001	775.918	869.02	-1238.103	1737.982	411.229	-1380.286	908.341	513.213	-1359.25	878.059	587.726	-1403.614	941.922	430.581	-1270.313	489.974	517.17	-1059.46	928.083	217.939	-1443.639	140.983	548.489	-928.399	566.771	174.014	-1328.992	9.729	547.485	-798.765	592.473	38.313
206	14.127	-1393.9	1395.654	731.923	-1393.9	1395.654	731.923	-1342.584	1266.813	841.006	-1461.962	1453.245	578.305	-1392.427	991.975	893.033	-1434.819	1602.849	344.556	-1345.608	763.813	849.209	-1255.526	1732.336	421.122	-1367.088	901.82	516.797	-1358.832	870.843	593.322	-1376.243	936.173	431.934	-1257.674	487.124	520.078	-1030.537	852.414	240.463	-1435.92	141.311	549.101	-989.127	477.151	159.773	-1329.455	3.781	548.198	-820.62	436.609	84.292
207	14.202	-1397.883	1391.703	729.822	-1397.883	1391.703	729.822	-1343.854	1264.189	837.881	-1465.177	1449.59	577.206	-1385.178	989.484	891.275	-1440.526	1604.317	348.013	-1333.158	763.528	847.484	-1259.581	1729.303	425.044	-1375.08	898.928	516.514	-1363.62	868.6	592.491	-1387.788	932.561	432.258	-1260.151	487.876	516.601	-1051.152	845.059	230.31	-1433.994	142.027	548.819	-1035.918	466.818	163.619	-1334.14	0.561	547.335	-876.621	400.708	88.271
208	14.255	-1397.915	1381.361	726.792	-1397.915	1381.361	726.792	-1345.802	1253.811	834.735	-1468.114	1438.437	576.564	-1382.257	980.07	889.096	-1457.186	1587.225	344.084	-1333.013	756.146	838.556	-1278.332	1711.009	424.335	-1375.075	886.255	521.617	-1365.162	857.784	598.078	-1386.068	917.829	436.824	-1248.61	487.232	503.727	-1238.07	556.416	524.102	-1433.355	150.294	544.948	-1392.738	206.877	536.916	-1353.444	-2.328	542.609	-1260.82	76.071	513.348
209	14.315	-1401.589	1381.308	724.87	-1401.589	1381.308	724.87	-1347.473	1255.274	835.338	-1469.886	1437.185	569.212	-1381.901	977.803	890.174	-1465.54	1584.132	331.339	-1330.393	752.323	835.464	-1286.63	1704.924	423.451	-1375.873	874.204	535.722	-1375.953	850.297	615.416	-1375.783	900.715	447.345	-1240.258	485.932	503.247	-1240.21	522.13	496.365	-1431.576	147.42	546.455	-1410.618	175.475	522.466	-1355.301	-9.398	543.15	-1382.372	-9.547	552.569
210	14.391	-1407.464	1378.113	723.5	-1407.464	1378.113	723.5	-1349.516	1254.578	834.692	-1477.655	1431.211	568.606	-1384.443	977.959	890.841	-1471.642	1578.941	331.848	-1328.081	753.867	837.076	-1289.655	1698.96	417.651	-1373.788	871.743	534.924	-1369.923	847.215	614.179	-1378.074	898.943	447.035	-1232.885	482.935	506.062	-1232.343	525.035	496.787	-1433.674	150.064	543.343	-1404.783	179.756	516.713	-1355.618	-5.524	546.643	-1310.479	16.756	535.307
211	14.454	-1413.091	1372.253	720.254	-1413.091	1372.253	720.254	-1351.59	1254.216	834.844	-1482.056	1423.122	563.914	-1381.788	977.658	895.97	-1478.462	1573.451	328.252	-1323.027	752.516	847.89	-1294.551	1688.257	417.957	-1369.318	862.18	541.674	-1368.708	839.665	621.744	-1369.994	887.148	452.88	-1230.351	475.955	511.155	-1224.136	511.504	493.225	-1432.336	143.024	547.565	-1411.625	174.265	523.48	-1349.981	-10.613	543.643	-1390.884	-11.677	553.661
